<svg width="131" height="143" viewBox="0 0 131 143" fill="none" xmlns="http://www.w3.org/2000/svg">
<path d="M78.1264 0C69.3517 0 61.6977 4.77766 57.6083 11.8696C53.5191 4.77766 45.8651 0 37.0904 0C24.0149 0 13.4157 10.5997 13.4157 23.6747C13.4157 36.7496 24.0149 47.3493 37.0904 47.3493C45.8651 47.3493 69.3517 47.3493 78.1266 47.3493C91.2021 47.3493 101.801 36.7496 101.801 23.6747C101.801 10.5997 91.2018 0 78.1264 0Z" fill="#004B23"/>
<path d="M37.0904 37.8795C29.2578 37.8795 22.8856 31.5073 22.8856 23.6746C22.8856 15.842 29.2578 9.46985 37.0904 9.46985C44.923 9.46985 51.2952 15.842 51.2952 23.6746C51.2952 31.5073 44.923 37.8795 37.0904 37.8795Z" fill="#9EF01A"/>
<path d="M78.1264 37.8795C70.2938 37.8795 63.9216 31.5073 63.9216 23.6746C63.9216 15.842 70.2938 9.46985 78.1264 9.46985C85.9591 9.46985 92.3312 15.842 92.3312 23.6746C92.3312 31.5073 85.9591 37.8795 78.1264 37.8795Z" fill="#9EF01A"/>
<path d="M71.8133 87.4387H43.4037L42.7899 93.1206L23.7514 131H34.3501L52.8736 94.1456V131H62.3434V94.1456L80.8666 131H91.4651L72.4269 93.1206L71.8133 87.4387Z" fill="#9EF01A"/>
<path d="M92.3312 42.6144H92.3149H22.902H22.8856V93.1205H92.3312V82.8455L95.488 66.656L92.3312 52.8897V42.6144Z" fill="#003638"/>
<path d="M92.3312 52.8898V82.8455L117.584 93.2472V42.4878L92.3312 52.8898Z" fill="#FFDA44"/>
<path d="M71.8133 61.5542H43.4037V71.0241H71.8133V61.5542Z" fill="#00D7DF"/>
</svg>
