<svg width="734" height="572" viewBox="0 0 734 572" fill="none" xmlns="http://www.w3.org/2000/svg">
<path d="M482.276 184.434C426.658 97.3422 424.175 3.73731 312.684 0.239888C245.802 -1.82416 195.414 70.7477 155.259 119.024C115.104 167.299 57.9217 286.121 115.194 317.254C160.249 341.736 153.154 435.033 191.782 467.198C230.854 499.65 315.368 481.729 334.014 526.508C370.859 614.861 510.848 540.735 575.121 459.262C631.948 387.193 599.116 290.138 555.652 222.024L482.276 184.434Z" fill="#004B23"/>
<path d="M637.55 164.2C575.086 76.5332 530.47 4.69512 405.257 1.17462C330.144 -0.903058 273.554 72.1478 228.457 120.742C183.36 169.337 119.14 288.943 183.462 320.281C234.061 344.924 226.093 438.838 269.475 471.215C313.357 503.881 408.272 485.842 429.212 530.916C470.593 619.852 627.811 545.237 699.994 463.227C763.816 390.682 726.943 292.986 678.129 224.423L637.55 164.2Z" fill="#9EF01A"/>
<path d="M564.938 279.37C581.23 279.37 594.437 265.937 594.437 249.367C594.437 232.796 581.23 219.363 564.938 219.363C548.646 219.363 535.439 232.796 535.439 249.367C535.439 265.937 548.646 279.37 564.938 279.37Z" fill="#F2F2F2"/>
<path d="M564.938 257.262C569.225 257.262 572.701 253.727 572.701 249.367C572.701 245.006 569.225 241.471 564.938 241.471C560.65 241.471 557.175 245.006 557.175 249.367C557.175 253.727 560.65 257.262 564.938 257.262Z" fill="#E6E6E6"/>
<path d="M563.52 249.535C566.79 252.249 567.786 256.525 567.178 260.654C566.43 265.183 564.12 269.293 560.661 272.246C556.773 275.761 552.03 278.137 547.453 280.569C543.248 282.752 539.207 285.247 535.362 288.034C520.643 298.915 509.523 314.408 503.159 331.697C496.806 348.957 495.101 368.548 499.929 386.436C502.317 395.286 507.15 404.835 516.152 408.165C523.328 410.82 533.125 409.11 536.778 401.588C540.703 393.508 535.227 384.425 528.174 380.413C519.03 375.214 508.109 379.013 499.885 384.277C490.831 390.071 483.553 398.387 474.1 403.58C469.845 405.992 465.11 407.396 460.248 407.69C455.783 407.869 451.326 407.168 447.122 405.628C438.399 402.395 430.89 396.467 425.648 388.674C419.644 379.797 416.957 368.916 416.467 358.256C415.37 334.407 424.633 312.094 432.065 289.977C436.059 278.459 439.052 266.607 441.007 254.557C442.867 242.446 443.529 230.176 442.983 217.93C442.491 207.103 441.441 195.78 436.743 185.891C432.611 177.195 425.06 170.078 415.514 168.284C411.211 167.425 406.751 167.946 402.752 169.775C401.39 170.406 402.572 172.449 403.927 171.82C412.376 167.9 422.361 171.714 428.601 178.043C435.887 185.434 438.563 196.348 439.752 206.419C442.421 230.286 440.317 254.456 433.566 277.475C427.086 299.86 416.894 321.312 414.542 344.766C413.469 355.468 414.021 366.532 417.384 376.794C420.269 385.936 425.68 394.04 432.97 400.139C439.835 405.783 448.279 409.628 457.168 410.056C467.147 410.537 475.898 406.013 483.639 399.994C491.931 393.547 499.56 385.593 509.604 381.978C514.183 380.33 519.399 379.562 524.1 381.148C528.133 382.549 531.555 385.347 533.767 389.053C535.809 392.506 536.562 396.824 534.698 400.534C532.946 404.022 529.527 406.04 525.825 406.73C521.905 407.435 517.866 406.737 514.395 404.755C510.339 402.399 507.372 398.445 505.293 394.268C501.147 385.939 499.754 376.024 499.543 366.778C499.358 357.748 500.496 348.739 502.919 340.049C507.74 322.47 517.472 306.691 530.934 294.626C534.326 291.621 537.954 288.904 541.782 286.502C545.959 283.884 550.417 281.792 554.675 279.322C558.864 276.891 562.993 273.986 565.878 269.986C568.337 266.558 569.665 262.425 569.672 258.182C569.716 256.23 569.334 254.292 568.555 252.508C567.776 250.723 566.619 249.136 565.166 247.86C564.014 246.905 562.357 248.571 563.52 249.535Z" fill="#CCCCCC"/>
<path d="M288.128 387.541C298.442 394.322 310.375 398.126 322.65 398.547C322.43 399.076 322.184 399.592 321.912 400.095C320.483 402.778 318.464 405.088 316.012 406.846C313.109 408.924 309.701 410.151 306.159 410.394C302.617 410.636 299.077 409.885 295.926 408.221C292.776 406.558 290.134 404.046 288.291 400.961C286.448 397.875 285.473 394.333 285.473 390.723V387.541H288.128Z" fill="#3F3D56"/>
<path d="M360.532 388.472V390.723C360.534 395.104 359.1 399.36 356.458 402.82C353.816 406.28 350.116 408.745 345.942 409.828C341.768 410.91 337.359 410.546 333.411 408.795C329.462 407.044 326.2 404.005 324.14 400.158C323.856 399.643 323.599 399.114 323.371 398.571C323.938 398.587 324.497 398.595 325.064 398.595C337.578 398.609 349.853 395.106 360.532 388.472Z" fill="#3F3D56"/>
<path d="M386.647 150.513C386.065 150.426 385.475 150.371 384.885 150.331C391.589 166.046 392.053 183.79 386.181 199.845C386.771 199.774 387.354 199.679 387.936 199.569C393.621 198.448 398.731 195.312 402.355 190.719C405.98 186.126 407.885 180.373 407.73 174.485C407.575 168.598 405.371 162.957 401.511 158.567C397.65 154.177 392.383 151.323 386.647 150.513Z" fill="#3F3D56"/>
<path d="M265.243 150.331C264.653 150.371 264.063 150.426 263.48 150.513C257.745 151.323 252.478 154.177 248.617 158.567C244.756 162.957 242.552 168.598 242.397 174.485C242.243 180.373 244.147 186.126 247.772 190.719C251.397 195.312 256.507 198.448 262.192 199.569C262.774 199.679 263.356 199.774 263.946 199.845C258.074 183.79 258.539 166.046 265.243 150.331Z" fill="#3F3D56"/>
<path d="M386.647 150.513C380.252 134.974 368.406 122.408 353.411 115.256C338.416 108.104 321.342 106.876 305.507 111.812C289.671 116.747 276.205 127.493 267.724 141.962C259.243 156.432 256.353 173.591 259.615 190.106C262.878 206.621 272.059 221.314 285.376 231.329C298.693 241.344 315.195 245.966 331.676 244.298C348.157 242.631 363.439 234.791 374.555 222.304C385.671 209.816 391.826 193.572 391.825 176.727C391.822 167.726 390.062 158.816 386.647 150.513ZM386.181 199.845C380.502 215.371 369.316 228.173 354.823 235.731C340.33 243.288 323.58 245.055 307.871 240.683C292.161 236.31 278.63 226.116 269.94 212.105C261.25 198.095 258.031 181.283 260.916 164.98C263.801 148.676 272.581 134.062 285.529 124.012C298.477 113.963 314.654 109.207 330.876 110.68C347.098 112.153 362.191 119.749 373.184 131.972C384.176 144.195 390.272 160.161 390.272 176.727C390.27 184.619 388.884 192.447 386.181 199.845Z" fill="#3F3D56"/>
<path d="M359.221 161.33H290.907C287.304 161.33 283.848 162.786 281.301 165.377C278.753 167.968 277.322 171.483 277.322 175.147C277.322 178.812 278.753 182.327 281.301 184.918C283.848 187.509 287.304 188.965 290.907 188.965H359.221C362.824 188.965 366.279 187.509 368.827 184.918C371.374 182.327 372.806 178.812 372.806 175.147C372.806 171.483 371.374 167.968 368.827 165.377C366.279 162.786 362.824 161.33 359.221 161.33Z" fill="#3F3D56"/>
<path d="M325.064 258.052C306.813 258.06 289.29 265.332 276.244 278.312C263.197 291.292 255.661 308.949 255.25 327.507C254.838 346.065 261.582 364.05 274.04 377.615C286.498 391.18 303.68 399.249 321.912 400.095C322.65 400.134 323.395 400.158 324.14 400.158C324.45 400.174 324.753 400.174 325.064 400.174C343.593 400.174 361.364 392.687 374.467 379.361C387.569 366.034 394.93 347.959 394.93 329.113C394.93 310.266 387.569 292.192 374.467 278.865C361.364 265.539 343.593 258.052 325.064 258.052ZM360.532 388.472C349.853 395.106 337.578 398.609 325.064 398.595C324.497 398.595 323.938 398.587 323.371 398.571C323.131 398.571 322.89 398.563 322.65 398.547C306.245 397.967 290.594 391.403 278.556 380.053C266.518 368.704 258.898 353.327 257.088 336.734C255.277 320.141 259.398 303.439 268.697 289.682C277.996 275.924 291.852 266.029 307.733 261.806C323.613 257.583 340.457 259.313 355.187 266.68C369.917 274.047 381.548 286.559 387.955 301.93C394.362 317.3 395.117 334.503 390.082 350.393C385.047 366.283 374.558 379.8 360.532 388.472Z" fill="#3F3D56"/>
<path d="M374.1 311.611H343.565C341.438 311.611 339.397 310.751 337.893 309.221C336.389 307.691 335.543 305.616 335.543 303.452C335.543 301.288 336.389 299.213 337.893 297.683C339.397 296.153 341.438 295.293 343.565 295.293H374.1C376.227 295.293 378.267 296.153 379.772 297.683C381.276 299.213 382.121 301.288 382.121 303.452C382.121 305.616 381.276 307.691 379.772 309.221C378.267 310.751 376.227 311.611 374.1 311.611Z" fill="#3F3D56"/>
<path d="M345.601 307.593C347.849 307.593 349.672 305.739 349.672 303.452C349.672 301.165 347.849 299.311 345.601 299.311C343.353 299.311 341.53 301.165 341.53 303.452C341.53 305.739 343.353 307.593 345.601 307.593Z" fill="#F2F2F2"/>
<path d="M358.832 307.593C361.081 307.593 362.904 305.739 362.904 303.452C362.904 301.165 361.081 299.311 358.832 299.311C356.584 299.311 354.761 301.165 354.761 303.452C354.761 305.739 356.584 307.593 358.832 307.593Z" fill="#F2F2F2"/>
<path d="M372.064 307.593C374.312 307.593 376.135 305.739 376.135 303.452C376.135 301.165 374.312 299.311 372.064 299.311C369.815 299.311 367.993 301.165 367.993 303.452C367.993 305.739 369.815 307.593 372.064 307.593Z" fill="#6C63FF"/>
<path d="M516.534 217.981C516.256 217.981 515.989 218.092 515.792 218.289C515.595 218.486 515.484 218.753 515.484 219.031V291.149C515.484 291.427 515.595 291.694 515.792 291.891C515.989 292.088 516.256 292.199 516.534 292.199H616.95C617.228 292.199 617.495 292.088 617.692 291.891C617.889 291.694 618 291.427 618 291.149V219.031C618 218.753 617.889 218.486 617.692 218.289C617.495 218.092 617.228 217.981 616.95 217.981H516.534Z" fill="#E6E6E6"/>
<path d="M611.405 224.431V275.683C611.405 276.025 611.269 276.353 611.027 276.595C610.785 276.836 610.458 276.972 610.116 276.972H523.161C523.1 276.973 523.039 276.968 522.979 276.957C522.673 276.913 522.392 276.76 522.188 276.527C521.985 276.293 521.873 275.993 521.873 275.683V224.431C521.873 224.089 522.008 223.761 522.25 223.519C522.492 223.277 522.819 223.142 523.161 223.142H610.116C610.458 223.142 610.785 223.277 611.027 223.519C611.269 223.761 611.405 224.089 611.405 224.431Z" fill="white"/>
<path d="M593.382 246.596C595.962 246.596 598.053 244.503 598.053 241.922C598.053 239.341 595.962 237.248 593.382 237.248C590.802 237.248 588.71 239.341 588.71 241.922C588.71 244.503 590.802 246.596 593.382 246.596Z" fill="#FF6584"/>
<path d="M518.485 222.113C519.335 222.113 520.025 221.423 520.025 220.572C520.025 219.721 519.335 219.031 518.485 219.031C517.634 219.031 516.945 219.721 516.945 220.572C516.945 221.423 517.634 222.113 518.485 222.113Z" fill="#3F3D56"/>
<path d="M614.794 222.113C615.644 222.113 616.334 221.423 616.334 220.572C616.334 219.721 615.644 219.031 614.794 219.031C613.943 219.031 613.254 219.721 613.254 220.572C613.254 221.423 613.943 222.113 614.794 222.113Z" fill="#3F3D56"/>
<path d="M518.485 291.148C519.335 291.148 520.025 290.459 520.025 289.608C520.025 288.756 519.335 288.067 518.485 288.067C517.634 288.067 516.945 288.756 516.945 289.608C516.945 290.459 517.634 291.148 518.485 291.148Z" fill="#3F3D56"/>
<path d="M614.794 291.148C615.644 291.148 616.334 290.459 616.334 289.608C616.334 288.756 615.644 288.067 614.794 288.067C613.943 288.067 613.254 288.756 613.254 289.608C613.254 290.459 613.943 291.148 614.794 291.148Z" fill="#3F3D56"/>
<path d="M550.522 260.27C553.617 260.27 556.126 257.76 556.126 254.663C556.126 251.566 553.617 249.055 550.522 249.055C547.426 249.055 544.917 251.566 544.917 254.663C544.917 257.76 547.426 260.27 550.522 260.27Z" fill="#6C63FF"/>
<path d="M551.062 271.553H549.914L550.437 253.818L551.062 271.553Z" fill="#3F3D56"/>
<path d="M550.539 257.179L551.771 255.473L550.522 257.602L550.387 257.365L550.539 257.179Z" fill="#3F3D56"/>
<path d="M550.403 258.902L549.171 257.196L550.42 259.324L550.556 259.088L550.403 258.902Z" fill="#3F3D56"/>
<path d="M601.934 260.27C605.03 260.27 607.539 257.76 607.539 254.663C607.539 251.566 605.03 249.055 601.934 249.055C598.839 249.055 596.33 251.566 596.33 254.663C596.33 257.76 598.839 260.27 601.934 260.27Z" fill="#6C63FF"/>
<path d="M602.474 271.553H601.327L601.85 253.818L602.474 271.553Z" fill="#3F3D56"/>
<path d="M601.951 257.179L603.184 255.473L601.935 257.602L601.799 257.365L601.951 257.179Z" fill="#3F3D56"/>
<path d="M601.816 258.902L600.584 257.196L601.833 259.324L601.968 259.088L601.816 258.902Z" fill="#3F3D56"/>
<path d="M566.758 258.053C571.329 258.053 575.035 254.345 575.035 249.771C575.035 245.197 571.329 241.489 566.758 241.489C562.186 241.489 558.48 245.197 558.48 249.771C558.48 254.345 562.186 258.053 566.758 258.053Z" fill="#6C63FF"/>
<path d="M567.555 274.717H565.86L566.633 248.523L567.555 274.717Z" fill="#3F3D56"/>
<path d="M566.783 253.488L568.603 250.968L566.758 254.111L566.558 253.762L566.783 253.488Z" fill="#3F3D56"/>
<path d="M566.583 256.032L564.763 253.513L566.608 256.656L566.807 256.307L566.583 256.032Z" fill="#3F3D56"/>
<path d="M586.944 254.889C591.516 254.889 595.222 251.181 595.222 246.607C595.222 242.033 591.516 238.325 586.944 238.325C582.372 238.325 578.666 242.033 578.666 246.607C578.666 251.181 582.372 254.889 586.944 254.889Z" fill="#6C63FF"/>
<path d="M587.742 271.553H586.047L586.819 245.36L587.742 271.553Z" fill="#3F3D56"/>
<path d="M586.969 250.324L588.789 247.804L586.944 250.948L586.745 250.598L586.969 250.324Z" fill="#3F3D56"/>
<path d="M586.77 252.869L584.949 250.349L586.794 253.492L586.994 253.143L586.77 252.869Z" fill="#3F3D56"/>
<path d="M534.585 254.889C539.157 254.889 542.863 251.181 542.863 246.607C542.863 242.033 539.157 238.325 534.585 238.325C530.014 238.325 526.307 242.033 526.307 246.607C526.307 251.181 530.014 254.889 534.585 254.889Z" fill="#6C63FF"/>
<path d="M535.383 271.553H533.688L534.461 245.36L535.383 271.553Z" fill="#3F3D56"/>
<path d="M534.61 250.324L536.43 247.804L534.585 250.948L534.386 250.598L534.61 250.324Z" fill="#3F3D56"/>
<path d="M534.411 252.869L532.591 250.349L534.436 253.492L534.635 253.143L534.411 252.869Z" fill="#3F3D56"/>
<path d="M567.22 276.972H523.161C523.1 276.973 523.039 276.968 522.979 276.957C522.673 276.913 522.392 276.76 522.188 276.527C521.985 276.293 521.873 275.993 521.873 275.683V264.677C526.018 263.986 530.215 263.645 534.418 263.657C550.058 263.657 563.141 268.142 566.421 274.145C566.916 275.007 567.191 275.978 567.22 276.972Z" fill="#3F3D56"/>
<path d="M611.405 273.188V275.683C611.405 276.025 611.269 276.353 611.027 276.595C610.785 276.836 610.458 276.972 610.116 276.972H561.37C562.938 275.836 564.633 274.887 566.421 274.145C572.393 271.582 580.816 269.984 590.148 269.984C598.259 269.984 605.677 271.187 611.405 273.188Z" fill="#3F3D56"/>
<path d="M572.404 95C572.233 95.0002 572.064 95.0427 571.912 95.1236L483.258 142.307C483.013 142.438 482.829 142.661 482.748 142.928C482.667 143.194 482.694 143.482 482.825 143.728L516.674 207.398C516.805 207.644 517.028 207.827 517.294 207.909C517.56 207.99 517.848 207.963 518.094 207.832L606.748 160.649C606.994 160.518 607.177 160.294 607.259 160.028C607.34 159.762 607.312 159.474 607.182 159.228L573.333 95.5579C573.268 95.4358 573.18 95.3277 573.074 95.2399C572.967 95.1521 572.844 95.0863 572.712 95.0463C572.612 95.0157 572.509 95.0001 572.404 95Z" fill="#E6E6E6"/>
<path d="M570.045 103.423L594.1 148.671C594.18 148.82 594.229 148.984 594.245 149.153C594.262 149.322 594.245 149.492 594.195 149.654C594.146 149.816 594.065 149.967 593.957 150.097C593.849 150.228 593.717 150.336 593.567 150.416L516.799 191.274C516.744 191.303 516.688 191.328 516.629 191.348C516.337 191.453 516.018 191.449 515.729 191.338C515.439 191.226 515.2 191.014 515.055 190.74L490.999 145.493C490.92 145.343 490.871 145.179 490.854 145.011C490.838 144.842 490.855 144.672 490.905 144.51C490.954 144.348 491.035 144.197 491.143 144.066C491.25 143.936 491.383 143.827 491.532 143.748L568.301 102.89C568.45 102.811 568.614 102.761 568.783 102.745C568.951 102.729 569.121 102.746 569.283 102.795C569.445 102.845 569.596 102.926 569.727 103.033C569.857 103.141 569.965 103.274 570.045 103.423Z" fill="white"/>
<path d="M518.735 162.284C524.983 162.284 530.048 157.216 530.048 150.964C530.048 144.712 524.983 139.644 518.735 139.644C512.486 139.644 507.421 144.712 507.421 150.964C507.421 157.216 512.486 162.284 518.735 162.284Z" fill="#FF6584"/>
<path d="M566.431 165.091L517.43 191.17C517.369 191.204 517.305 191.232 517.239 191.253L519.061 138.754C519.07 138.429 519.165 138.111 519.336 137.835C519.507 137.558 519.748 137.331 520.036 137.179C520.323 137.026 520.646 136.952 520.971 136.965C521.296 136.977 521.612 137.076 521.886 137.251L551.769 155.927L553.2 156.82L566.431 165.091Z" fill="#3F3D56"/>
<path opacity="0.2" d="M566.431 165.091L549.701 173.995L551.568 157.688L551.702 156.514L551.769 155.927L553.2 156.82L566.431 165.091Z" fill="black"/>
<path d="M593.714 150.57L551.333 173.127L553.2 156.82L553.334 155.645L555.766 134.395C555.926 133.002 557.58 132.04 558.878 132.492C558.966 132.523 559.052 132.56 559.135 132.602L593.714 150.57Z" fill="#3F3D56"/>
<path d="M486.197 145.219C487.048 145.219 487.737 144.529 487.737 143.678C487.737 142.827 487.048 142.137 486.197 142.137C485.346 142.137 484.657 142.827 484.657 143.678C484.657 144.529 485.346 145.219 486.197 145.219Z" fill="#3F3D56"/>
<path d="M571.225 99.9657C572.076 99.9657 572.765 99.2758 572.765 98.4247C572.765 97.5737 572.076 96.8837 571.225 96.8837C570.375 96.8837 569.685 97.5737 569.685 98.4247C569.685 99.2758 570.375 99.9657 571.225 99.9657Z" fill="#3F3D56"/>
<path d="M518.6 206.168C519.45 206.168 520.14 205.478 520.14 204.627C520.14 203.776 519.45 203.086 518.6 203.086C517.749 203.086 517.06 203.776 517.06 204.627C517.06 205.478 517.749 206.168 518.6 206.168Z" fill="#3F3D56"/>
<path d="M603.628 160.915C604.479 160.915 605.168 160.225 605.168 159.374C605.168 158.523 604.479 157.833 603.628 157.833C602.778 157.833 602.088 158.523 602.088 159.374C602.088 160.225 602.778 160.915 603.628 160.915Z" fill="#3F3D56"/>
<path d="M593.87 399.965C594.14 400.036 594.426 399.997 594.667 399.858C594.907 399.718 595.083 399.488 595.155 399.219L613.685 329.526C613.756 329.256 613.718 328.97 613.578 328.729C613.438 328.488 613.209 328.312 612.94 328.24L515.898 302.412C515.629 302.34 515.343 302.378 515.102 302.518C514.861 302.658 514.685 302.888 514.614 303.157L496.084 372.85C496.049 372.984 496.04 373.123 496.058 373.26C496.076 373.396 496.121 373.528 496.191 373.647C496.26 373.767 496.352 373.871 496.461 373.955C496.571 374.039 496.696 374.1 496.829 374.136L593.87 399.965Z" fill="#E6E6E6"/>
<path d="M605.923 333.047L592.755 382.577C592.667 382.908 592.452 383.189 592.156 383.361C591.86 383.532 591.509 383.579 591.178 383.492L507.146 361.125C507.087 361.111 507.029 361.09 506.974 361.063C506.689 360.943 506.457 360.723 506.32 360.444C506.184 360.166 506.153 359.848 506.232 359.548L519.4 310.018C519.488 309.688 519.704 309.406 519.999 309.234C520.295 309.063 520.647 309.016 520.977 309.104L605.009 331.47C605.34 331.558 605.621 331.773 605.793 332.069C605.964 332.365 606.011 332.717 605.923 333.047Z" fill="white"/>
<path d="M594.626 375.541L592.755 382.577C592.667 382.908 592.452 383.189 592.156 383.361C591.86 383.532 591.509 383.579 591.178 383.492L507.146 361.125C507.087 361.111 507.029 361.09 506.974 361.063C506.689 360.943 506.457 360.723 506.32 360.444C506.184 360.166 506.153 359.848 506.232 359.548L508.103 352.512L594.626 375.541Z" fill="#3F3D56"/>
<path d="M557.496 370.16L544.127 366.602L543.721 368.131L557.09 371.689L557.496 370.16Z" fill="#CCCCCC"/>
<path d="M526.748 361.976L513.379 358.418L512.973 359.947L526.341 363.505L526.748 361.976Z" fill="#CCCCCC"/>
<path d="M588.244 378.344L574.876 374.786L574.469 376.315L587.838 379.873L588.244 378.344Z" fill="#CCCCCC"/>
<path d="M517.118 306.959C517.968 306.959 518.658 306.269 518.658 305.418C518.658 304.567 517.968 303.877 517.118 303.877C516.267 303.877 515.578 304.567 515.578 305.418C515.578 306.269 516.267 306.959 517.118 306.959Z" fill="#3F3D56"/>
<path d="M610.19 331.731C611.041 331.731 611.73 331.041 611.73 330.19C611.73 329.339 611.041 328.649 610.19 328.649C609.34 328.649 608.65 329.339 608.65 330.19C608.65 331.041 609.34 331.731 610.19 331.731Z" fill="#3F3D56"/>
<path d="M499.38 373.674C500.231 373.674 500.92 372.984 500.92 372.133C500.92 371.282 500.231 370.592 499.38 370.592C498.53 370.592 497.84 371.282 497.84 372.133C497.84 372.984 498.53 373.674 499.38 373.674Z" fill="#3F3D56"/>
<path d="M592.453 398.446C593.303 398.446 593.993 397.756 593.993 396.905C593.993 396.054 593.303 395.364 592.453 395.364C591.602 395.364 590.913 396.054 590.913 396.905C590.913 397.756 591.602 398.446 592.453 398.446Z" fill="#3F3D56"/>
<path d="M573.961 372.332L581.39 374.313L581.704 373.133L574.275 371.152L573.961 372.332Z" fill="#3F3D56"/>
<path d="M520.482 357.118L521.92 357.881L580.175 373.419L581.023 372.337C582.494 370.485 583.421 368.261 583.701 365.912C583.899 364.159 583.716 362.315 582.481 361.207L584.476 343.289L552.258 334.652L537.111 341.397C537.111 341.397 531.257 339.725 527.002 342.856C525.456 344.029 524.298 345.641 523.68 347.482L523.004 349.519L520.482 357.118Z" fill="#6C63FF"/>
<path d="M533.355 367.684C537.466 367.684 540.799 364.349 540.799 360.236C540.799 356.122 537.466 352.787 533.355 352.787C529.243 352.787 525.91 356.122 525.91 360.236C525.91 364.349 529.243 367.684 533.355 367.684Z" fill="#3F3D56"/>
<path d="M533.355 364.156C535.519 364.156 537.273 362.401 537.273 360.236C537.273 358.07 535.519 356.315 533.355 356.315C531.191 356.315 529.437 358.07 529.437 360.236C529.437 362.401 531.191 364.156 533.355 364.156Z" fill="#CCCCCC"/>
<path d="M568.85 377.152C572.961 377.152 576.294 373.817 576.294 369.703C576.294 365.589 572.961 362.255 568.85 362.255C564.738 362.255 561.405 365.589 561.405 369.703C561.405 373.817 564.738 377.152 568.85 377.152Z" fill="#3F3D56"/>
<path d="M568.85 373.624C571.014 373.624 572.768 371.868 572.768 369.703C572.768 367.538 571.014 365.783 568.85 365.783C566.686 365.783 564.932 367.538 564.932 369.703C564.932 371.868 566.686 373.624 568.85 373.624Z" fill="#CCCCCC"/>
<path d="M542.379 341.539L559.78 346.179L561.905 346.744L565.491 347.702L565.561 347.44L566.402 344.285L567.347 340.742L564.961 340.107L562.837 339.539L559.074 338.535L556.95 337.969L552.606 336.81L542.379 341.539Z" fill="white"/>
<path d="M568.322 348.458L577.519 350.911L578.001 349.106L578.84 345.95L579.374 343.951L578.028 343.593L575.904 343.025L570.175 341.497L568.322 348.458Z" fill="white"/>
<path d="M562.332 354.823L563.512 355.138L564.109 352.896L562.93 352.582L562.332 354.823Z" fill="#3F3D56"/>
<path d="M546.247 345.982L546.561 344.802L544.32 344.204L544.006 345.384L546.247 345.982Z" fill="#3F3D56"/>
<path d="M545.597 345.101L545.467 345.066C544.814 344.892 544.256 344.465 543.917 343.879C543.578 343.294 543.486 342.597 543.66 341.943C543.834 341.289 544.261 340.731 544.846 340.392C545.432 340.053 546.128 339.96 546.781 340.135L546.911 340.169L545.597 345.101Z" fill="#3F3D56"/>
<path d="M523.004 349.519C523.87 349.854 524.826 349.872 525.704 349.57C526.582 349.268 527.325 348.666 527.803 347.87C528.281 347.073 528.463 346.134 528.316 345.217C528.17 344.299 527.704 343.463 527.002 342.856C525.456 344.029 524.298 345.641 523.68 347.482L523.004 349.519Z" fill="#3F3D56"/>
<path d="M562.837 339.539L565.561 347.44L566.402 344.285L564.961 340.107L562.837 339.539Z" fill="#F2F2F2"/>
<path d="M575.904 343.025L578.001 349.106L578.84 345.95L578.028 343.593L575.904 343.025Z" fill="#F2F2F2"/>
<path d="M556.95 337.969L559.78 346.179L561.905 346.744L559.074 338.535L556.95 337.969Z" fill="#F2F2F2"/>
</svg>
